<?xml version="1.0" encoding="UTF-8"?>
<!DOCTYPE svg PUBLIC "-//W3C//DTD SVG 1.1//EN" "http://www.w3.org/Graphics/SVG/1.1/DTD/svg11.dtd">
<!-- Creator: CorelDRAW 2020 (64 Bit) -->
<svg xmlns="http://www.w3.org/2000/svg" xml:space="preserve" width="47.0927mm" height="23.363mm" version="1.1" style="shape-rendering:geometricPrecision; text-rendering:geometricPrecision; image-rendering:optimizeQuality; fill-rule:evenodd; clip-rule:evenodd"
viewBox="0 0 1246.43 618.36"
 xmlns:xlink="http://www.w3.org/1999/xlink"
 xmlns:xodm="http://www.corel.com/coreldraw/odm/2003">
 <defs>
  <style type="text/css">
   <![CDATA[
    .fil0 {fill:#FEFEFE}
   ]]>
  </style>
 </defs>
 <g id="Camada_x0020_1">
  <metadata id="CorelCorpID_0Corel-Layer"/>
  <path class="fil0" d="M468.21 418.39l0 -118.73 24.64 0c17.75,0 30.65,1.43 38.67,4.27 11.52,4.05 20.53,11.03 27.01,21 6.48,9.95 9.73,21.8 9.73,35.58 0,11.91 -2.57,22.35 -7.72,31.39 -5.13,9.04 -11.82,15.73 -20.01,20.03 -8.21,4.3 -19.73,6.45 -34.53,6.45l-37.79 0zm722.82 78.27l55.39 118.73 -12.76 0c-34.14,-71.83 -16.17,-34.42 -44.12,-93.82 -22.01,46.58 -21.32,45.14 -44.32,93.82l-13.23 0 56.06 -118.73 2.97 0zm-551.15 -197l55.39 118.73 -12.76 0c-34.14,-71.83 -16.17,-34.42 -44.12,-93.82 -22.01,46.58 -21.32,45.14 -44.32,93.82l-13.23 0 56.06 -118.73 2.98 0zm73.86 118.73l0 -118.73 2.56 0 78.96 90.81 0 -90.81 11.91 0 0 118.73 -2.7 0 -78.49 -90.01 0 90.01 -12.24 0zm120.49 -118.73l11.91 0 0 118.73 -11.91 0 0 -118.73zm39.03 0l11.91 0 0 107.16 45.8 0 0 11.57 -57.71 0 0 -118.73zm-281.83 197l67.97 0 0 11.58 -56.06 0 0 37.21 55.56 0 0 11.57 -55.56 0 0 46.8 55.56 0 0 11.57 -67.47 0 0 -118.73zm122.04 96.52l10.09 -6.06c7.11,13.12 15.32,19.68 24.64,19.68 4,0 7.74,-0.94 11.24,-2.78 3.5,-1.84 6.17,-4.36 7.99,-7.47 1.85,-3.12 2.76,-6.43 2.76,-9.93 0,-3.96 -1.35,-7.86 -4.05,-11.69 -3.72,-5.26 -10.5,-11.63 -20.4,-19.04 -9.92,-7.5 -16.09,-12.9 -18.52,-16.23 -4.22,-5.6 -6.31,-11.66 -6.31,-18.16 0,-5.15 1.24,-9.86 3.72,-14.11 2.48,-4.24 5.98,-7.58 10.5,-10.03 4.52,-2.45 9.4,-3.67 14.69,-3.67 5.62,0 10.88,1.38 15.76,4.16 4.88,2.76 10.06,7.86 15.52,15.27l-9.7 7.36c-4.49,-5.92 -8.32,-9.84 -11.49,-11.71 -3.17,-1.9 -6.61,-2.84 -10.34,-2.84 -4.82,0 -8.76,1.46 -11.82,4.35 -3.06,2.92 -4.6,6.48 -4.6,10.75 0,2.56 0.55,5.07 1.63,7.49 1.08,2.43 3.06,5.04 5.93,7.91 1.54,1.49 6.7,5.46 15.4,11.85 10.31,7.6 17.39,14.36 21.22,20.26 3.83,5.92 5.76,11.88 5.76,17.86 0,8.6 -3.28,16.1 -9.81,22.43 -6.56,6.37 -14.53,9.54 -23.89,9.54 -7.22,0 -13.78,-1.93 -19.65,-5.79 -5.87,-3.86 -11.3,-10.34 -16.26,-19.4zm151.2 -99.49c17.97,0 33.01,6.01 45.11,18 12.1,11.99 18.16,26.76 18.16,44.29 0,17.39 -6.04,32.14 -18.11,44.24 -12.1,12.1 -26.81,18.16 -44.2,18.16 -17.59,0 -32.44,-6.04 -44.54,-18.08 -12.1,-12.04 -18.16,-26.62 -18.16,-43.74 0,-11.41 2.76,-21.97 8.27,-31.72 5.51,-9.73 13.03,-17.36 22.57,-22.88 9.51,-5.51 19.82,-8.27 30.9,-8.27zm0.52 11.57c-8.77,0 -17.09,2.29 -24.97,6.87 -7.85,4.57 -14,10.72 -18.44,18.46 -4.41,7.77 -6.62,16.4 -6.62,25.94 0,14.08 4.88,25.99 14.67,35.69 9.78,9.73 21.58,14.58 35.36,14.58 9.23,0 17.74,-2.23 25.57,-6.7 7.86,-4.47 13.97,-10.58 18.36,-18.33 4.38,-7.74 6.59,-16.34 6.59,-25.82 0,-9.43 -2.2,-17.94 -6.59,-25.55 -4.38,-7.6 -10.58,-13.7 -18.55,-18.27 -7.96,-4.57 -16.43,-6.87 -25.38,-6.87zm87.09 -8.6l11.9 0 0 71.71c0,8.49 0.17,13.81 0.49,15.9 0.58,4.69 1.96,8.6 4.11,11.74 2.15,3.14 5.46,5.79 9.92,7.91 4.47,2.12 8.96,3.2 13.51,3.2 3.91,0 7.69,-0.83 11.3,-2.51 3.58,-1.65 6.61,-3.97 9.04,-6.95 2.43,-2.95 4.19,-6.53 5.32,-10.72 0.8,-3.03 1.21,-9.21 1.21,-18.58l0 -71.71 11.91 0 0 71.66c0,10.61 -1.05,19.18 -3.12,25.71 -2.07,6.53 -6.23,12.24 -12.43,17.06 -6.23,4.85 -13.76,7.28 -22.6,7.28 -9.59,0 -17.81,-2.29 -24.64,-6.86 -6.86,-4.58 -11.44,-10.61 -13.75,-18.16 -1.46,-4.63 -2.18,-12.95 -2.18,-25.03l0 -71.66zm95.55 96.52l10.09 -6.06c7.11,13.12 15.32,19.68 24.64,19.68 4,0 7.74,-0.94 11.24,-2.78 3.5,-1.84 6.17,-4.36 7.99,-7.47 1.85,-3.12 2.76,-6.43 2.76,-9.93 0,-3.96 -1.35,-7.86 -4.05,-11.69 -3.72,-5.26 -10.5,-11.63 -20.4,-19.04 -9.92,-7.5 -16.09,-12.9 -18.52,-16.23 -4.22,-5.6 -6.31,-11.66 -6.31,-18.16 0,-5.15 1.24,-9.86 3.72,-14.11 2.48,-4.24 5.98,-7.58 10.5,-10.03 4.52,-2.45 9.4,-3.67 14.69,-3.67 5.62,0 10.89,1.38 15.76,4.16 4.88,2.76 10.06,7.86 15.52,15.27l-9.7 7.36c-4.49,-5.92 -8.32,-9.84 -11.49,-11.71 -3.17,-1.9 -6.61,-2.84 -10.34,-2.84 -4.82,0 -8.76,1.46 -11.82,4.35 -3.06,2.92 -4.6,6.48 -4.6,10.75 0,2.56 0.55,5.07 1.63,7.49 1.08,2.43 3.06,5.04 5.93,7.91 1.54,1.49 6.7,5.46 15.4,11.85 10.31,7.6 17.39,14.36 21.22,20.26 3.83,5.92 5.76,11.88 5.76,17.86 0,8.6 -3.28,16.1 -9.81,22.43 -6.56,6.37 -14.52,9.54 -23.89,9.54 -7.22,0 -13.78,-1.93 -19.65,-5.79 -5.87,-3.86 -11.3,-10.34 -16.26,-19.4zm-579.62 22.21l0 -118.73 24.64 0c17.75,0 30.65,1.43 38.67,4.27 11.52,4.05 20.53,11.03 27.01,21 6.48,9.95 9.73,21.8 9.73,35.58 0,11.91 -2.57,22.35 -7.72,31.39 -5.13,9.04 -11.82,15.73 -20.01,20.03 -8.21,4.3 -19.73,6.45 -34.53,6.45l-37.79 0zm11.41 -11.25l13.7 0c16.37,0 27.7,-1.02 34.03,-3.06 8.9,-2.92 15.93,-8.13 21.03,-15.68 5.1,-7.58 7.63,-16.81 7.63,-27.73 0,-11.44 -2.76,-21.25 -8.29,-29.35 -5.51,-8.13 -13.23,-13.7 -23.1,-16.7 -7.42,-2.26 -19.62,-3.39 -36.63,-3.39l-8.38 0 0 95.91zm526.62 -307.46c17.97,0 33.02,6.01 45.11,18 12.1,11.99 18.16,26.76 18.16,44.29 0,17.39 -6.04,32.14 -18.11,44.24 -12.1,12.1 -26.81,18.16 -44.2,18.16 -17.59,0 -32.44,-6.04 -44.54,-18.08 -12.1,-12.04 -18.16,-26.62 -18.16,-43.74 0,-11.41 2.76,-21.97 8.27,-31.72 5.51,-9.73 13.03,-17.36 22.57,-22.88 9.51,-5.51 19.82,-8.27 30.9,-8.27zm0.52 11.57c-8.77,0 -17.09,2.29 -24.97,6.87 -7.85,4.57 -14,10.72 -18.44,18.46 -4.41,7.77 -6.62,16.4 -6.62,25.94 0,14.08 4.88,25.99 14.66,35.69 9.78,9.73 21.58,14.58 35.36,14.58 9.23,0 17.75,-2.23 25.58,-6.7 7.86,-4.47 13.97,-10.58 18.36,-18.33 4.38,-7.74 6.59,-16.34 6.59,-25.82 0,-9.43 -2.2,-17.94 -6.59,-25.55 -4.38,-7.6 -10.58,-13.7 -18.55,-18.27 -7.96,-4.57 -16.43,-6.87 -25.38,-6.87zm-527.14 98.89l13.7 0c16.37,0 27.7,-1.02 34.03,-3.06 8.9,-2.92 15.93,-8.13 21.03,-15.68 5.1,-7.58 7.63,-16.81 7.63,-27.73 0,-11.44 -2.76,-21.25 -8.29,-29.35 -5.51,-8.13 -13.23,-13.7 -23.1,-16.7 -7.42,-2.26 -19.62,-3.39 -36.63,-3.39l-8.38 0 0 95.91z"/>
  <path class="fil0" d="M-0 618.36l0 -330.94c18.81,33.57 48.93,60.04 85.12,74.15l0 171.67 68.64 0 63.85 85.12 -217.61 0z"/>
  <path class="fil0" d="M228.7 533.24l3.76 0c33,0 59.99,-27 59.99,-59.99l0 -61.52c0,-32.99 -27,-59.99 -59.99,-59.99l-31.78 0 -42.08 0 -13.49 0c-79.81,0 -145.11,-65.3 -145.11,-145.11l0 -5.12 0 -30.98 0 -25.42c0,-79.81 65.3,-145.11 145.11,-145.11l3.76 0 0 85.12 -3.76 0c-32.99,0 -59.99,27 -59.99,59.99l0 25.42 0 36.09c0,32.99 27,59.99 59.99,59.99l55.57 0 31.78 0c79.81,0 145.11,65.31 145.11,145.11l0 61.52c0,79.8 -65.31,145.11 -145.11,145.11l-3.76 0 0 -85.12z"/>
 </g>
</svg>
